<svg width="32" height="32" viewBox="0 0 32 32" fill="none" xmlns="http://www.w3.org/2000/svg">
    <path d="M4.9227 9.042C5.13804 8.99133 5.44837 9.004 5.8537 9.08C6.20837 9.14333 6.5947 9.327 7.0127 9.631C8.08937 10.4417 8.71637 12.2023 8.8937 14.913C8.95704 15.863 8.94437 16.9713 8.8557 18.238C8.83037 18.9093 8.78604 19.4287 8.7227 19.796V19.872L8.8367 19.777C10.952 17.953 12.5354 16.2557 13.5867 14.685C14.068 13.9503 14.372 13.3487 14.4987 12.88C14.562 12.652 14.562 12.4177 14.4987 12.177C14.372 11.835 14.1567 11.5817 13.8527 11.417C13.6374 11.3157 13.403 11.2523 13.1497 11.227C13.0484 11.227 12.9724 11.2143 12.9217 11.189C12.7697 11.0877 12.7127 10.8723 12.7507 10.543C12.7887 9.99833 12.9787 9.555 13.3207 9.213C13.3967 9.14967 13.4664 9.099 13.5297 9.061C13.593 9.03567 13.7007 9.023 13.8527 9.023C14.2327 9.03567 14.581 9.156 14.8977 9.384C15.2524 9.62467 15.5057 9.97933 15.6577 10.448C15.8984 11.132 15.8857 11.93 15.6197 12.842C15.0624 14.932 13.4537 17.2943 10.7937 19.929C9.55237 21.145 8.3807 22.152 7.2787 22.95C7.1267 23.0513 7.0127 23.102 6.9367 23.102C6.87337 23.102 6.81637 23.0767 6.7657 23.026C6.6137 22.874 6.5757 22.57 6.6517 22.114C6.81637 21.1767 6.93037 20.1317 6.9937 18.979C7.12037 17.2437 7.08237 15.6603 6.8797 14.229C6.6517 12.595 6.1767 11.4803 5.4547 10.885C5.1127 10.6063 4.6757 10.448 4.1437 10.41C4.04237 10.41 3.94737 10.3847 3.8587 10.334C3.69404 10.2453 3.66237 10.0807 3.7637 9.84C3.86504 9.66267 3.99804 9.51067 4.1627 9.384C4.41604 9.194 4.66937 9.08 4.9227 9.042ZM22.845 9.042H29.59C29.9194 9.08 30.1537 9.13067 30.293 9.194C30.4704 9.308 30.597 9.41567 30.673 9.517C30.6984 9.58033 30.711 9.67533 30.711 9.802C30.711 9.92867 30.692 10.03 30.654 10.106C30.578 10.2833 30.426 10.4543 30.198 10.619C29.8054 10.9103 29.4254 11.056 29.058 11.056C28.9314 11.056 28.8427 11.037 28.792 10.999C28.716 10.961 28.6717 10.8787 28.659 10.752V10.638L28.545 10.619C28.3677 10.5557 27.7534 10.5177 26.702 10.505H26.341H24.574L24.555 10.638C24.4917 11.018 24.3777 11.5183 24.213 12.139C24.0104 12.9243 23.776 13.7287 23.51 14.552C23.4087 14.7927 23.358 14.9383 23.358 14.989H25.657H27.956L28.051 15.046C28.1524 15.1093 28.203 15.1917 28.203 15.293C28.203 15.4197 28.1587 15.5717 28.07 15.749C27.88 16.1163 27.5127 16.4013 26.968 16.604C26.7654 16.6673 26.5817 16.699 26.417 16.699C26.265 16.699 26.1637 16.642 26.113 16.528L26.075 16.471H24.422C23.3327 16.471 22.7817 16.4837 22.769 16.509C22.7057 16.7243 22.5094 17.1803 22.18 17.877C21.6607 19.0803 21.1667 20.0557 20.698 20.803C20.1027 21.6643 19.33 22.2343 18.38 22.513C18.2914 22.5383 18.209 22.5573 18.133 22.57C18.019 22.5953 17.829 22.608 17.563 22.608C17.1197 22.608 16.7524 22.5383 16.461 22.399C15.9924 22.1583 15.644 21.8227 15.416 21.392C15.3274 21.24 15.3084 21.1007 15.359 20.974C15.4857 20.6447 15.8087 20.3597 16.328 20.119C16.4547 20.0557 16.5814 20.0113 16.708 19.986C16.9107 19.948 17.0817 19.9543 17.221 20.005C17.2844 20.0303 17.354 20.1127 17.43 20.252C17.5694 20.518 17.753 20.727 17.981 20.879C18.1457 20.993 18.3864 21.0753 18.703 21.126H18.798L18.874 21.012C19.2287 20.4547 19.6467 19.6187 20.128 18.504C20.1407 18.4787 20.1534 18.4533 20.166 18.428C21.3567 15.8187 22.18 13.203 22.636 10.581L22.655 10.505H22.18C21.7747 10.5177 21.4517 10.562 21.211 10.638C20.5777 10.8533 20.147 11.284 19.919 11.93C19.8557 12.158 19.7607 12.3353 19.634 12.462C19.1907 12.8673 18.7094 13.0953 18.19 13.146C18.0254 13.146 17.9177 13.089 17.867 12.975C17.829 12.899 17.8417 12.747 17.905 12.519C18.095 11.949 18.4497 11.4043 18.969 10.885C19.9317 9.92233 21.1034 9.327 22.484 9.099C22.6107 9.07367 22.731 9.05467 22.845 9.042Z" fill="black"/>
</svg>